# File created by Blade
# Date/Time:  Thu Jan 22 16:10:14 2015
# Frame Rate: 120.000 fps
#------------------------------------------------------
:FULLY-SPECIFIED
:DEGREES
2634
root 2.269719 36.001418 3.223791 4.224092 3.385129 -3.563687
RightUpLeg -4.633699 -0.639438 -18.860472
RightLeg 8.197716 -0.000000 -0.000000
RightFoot 2.326415 -20.331721 23.475682
RightToeBase 4.671544 -0.000000 -0.000000
LeftUpLeg -14.011571 -12.684902 16.455754
LeftLeg 27.175218 -0.000000 -0.000000
LeftFoot -21.027914 6.682130 -24.238959
LeftToeBase 5.728123 -0.000000 -0.000000
Spine 21.731703 -3.553298 -9.162895
RightShoulder -0.728924 -19.357492 -19.282775
RightArm 12.867897 6.998285 63.788627
RightForeArm 22.420197 -0.000000 33.224714
RightHand 5.854153 -0.000000 -16.915250
RightHandThumb1 -24.326973 -0.000000 -32.862282
LeftShoulder -25.495803 30.724379 12.104705
LeftArm 44.411058 -29.655544 -57.357577
LeftForeArm 25.944320 0.000000 22.421758
LeftHand -24.461188 -0.000000 4.086088
LeftHandThumb1 -26.253704 0.000000 33.147579
Head -28.886129 5.638979 6.169792
2635
root 2.349610 36.070186 3.220120 4.107155 3.303264 -3.740493
RightUpLeg -5.075877 -1.070904 -18.346509
RightLeg 9.646481 -0.000000 -0.000000
RightFoot 0.592091 -20.581304 23.000132
RightToeBase 4.121302 -0.000000 -0.000000
LeftUpLeg -13.607442 -12.354032 16.443246
LeftLeg 26.617373 -0.000000 -0.000000
LeftFoot -20.692643 6.669606 -24.091605
LeftToeBase 5.815722 -0.000000 -0.000000
Spine 21.657511 -3.779503 -8.987053
RightShoulder -0.867972 -19.266346 -19.389477
RightArm 12.688962 7.630632 63.495309
RightForeArm 22.130329 -0.000000 33.032918
RightHand 5.680843 -0.000000 -16.928717
RightHandThumb1 -24.326973 -0.000000 -32.862282
LeftShoulder -25.450979 30.716098 12.404719
LeftArm 44.340326 -29.982985 -57.279183
LeftForeArm 25.903116 -0.000000 22.442564
LeftHand -24.428302 -0.000000 4.021287
LeftHandThumb1 -26.253704 0.000000 33.147579
Head -28.747881 5.833181 6.183038
2636
root 2.421298 36.138789 3.231981 3.848860 3.158425 -3.915966
RightUpLeg -5.405085 -1.586259 -17.781900
RightLeg 11.247495 -0.000000 -0.000000
RightFoot -1.473480 -20.427637 22.359415
RightToeBase 3.452996 -0.000000 -0.000000
LeftUpLeg -13.024931 -11.996335 16.403186
LeftLeg 26.082196 -0.000000 -0.000000
LeftFoot -20.350345 6.589229 -23.993899
LeftToeBase 5.862326 -0.000000 -0.000000
Spine 21.723669 -3.929819 -8.832010
RightShoulder -1.009403 -19.248884 -19.496253
RightArm 12.630753 8.284712 63.225129
RightForeArm 22.037886 -0.000000 32.823455
RightHand 5.609382 -0.000000 -16.853747
RightHandThumb1 -24.326973 -0.000000 -32.862282
LeftShoulder -25.417416 30.698646 12.672664
LeftArm 44.260448 -30.315509 -57.161852
LeftForeArm 25.888952 -0.000000 22.458519
LeftHand -24.434662 0.000000 3.987596
LeftHandThumb1 -26.253704 0.000000 33.147579
Head -28.622174 6.120766 6.199667
2637
root 2.494471 36.207752 3.240980 3.594149 3.018631 -4.022241
RightUpLeg -5.773136 -2.197115 -17.257092
RightLeg 12.974003 -0.000000 -0.000000
RightFoot -3.664822 -20.139661 22.253233
RightToeBase 2.777970 -0.000000 -0.000000
LeftUpLeg -12.439857 -11.769619 16.295335
LeftLeg 25.524519 -0.000000 -0.000000
LeftFoot -19.981466 6.648397 -23.890030
LeftToeBase 5.820119 -0.000000 -0.000000
Spine 21.793131 -4.074367 -8.764086
RightShoulder -1.118252 -19.135726 -19.562245
RightArm 12.485946 8.845445 62.862432
RightForeArm 21.892061 -0.000000 32.578471
RightHand 5.483623 -0.000000 -16.666869
RightHandThumb1 -24.326973 -0.000000 -32.862282
LeftShoulder -25.423441 30.700692 12.955089
LeftArm 44.271705 -30.637606 -57.121441
LeftForeArm 25.853481 -0.000000 22.433820
LeftHand -24.356868 0.000000 3.935409
LeftHandThumb1 -26.253704 0.000000 33.147579
Head -28.486726 6.288432 6.282371
2638
root 2.549934 36.280351 3.250956 3.284815 2.851027 -4.215503
RightUpLeg -6.021698 -2.612707 -16.582333
RightLeg 14.594276 -0.000000 -0.000000
RightFoot -5.773104 -19.854968 22.394845
RightToeBase 1.949353 -0.000000 -0.000000
LeftUpLeg -11.780523 -11.469667 16.294036
LeftLeg 24.934493 -0.000000 -0.000000
LeftFoot -19.582321 6.651329 -23.786719
LeftToeBase 5.792662 -0.000000 -0.000000
Spine 21.948031 -4.198180 -8.603845
RightShoulder -1.269989 -19.125887 -19.625470
RightArm 12.557009 9.417627 62.500313
RightForeArm 21.794878 -0.000000 32.301631
RightHand 5.431493 0.000000 -16.615866
RightHandThumb1 -24.326973 -0.000000 -32.862282
LeftShoulder -25.381291 30.738855 13.189240
LeftArm 44.212279 -31.081040 -57.109380
LeftForeArm 25.793280 -0.000000 22.538798
LeftHand -24.379013 0.000000 3.804373
LeftHandThumb1 -26.253704 0.000000 33.147579
Head -28.427100 6.513885 6.351812
2639
root 2.594783 36.352279 3.268934 2.961129 2.703760 -4.399902
RightUpLeg -6.202444 -3.000643 -15.880569
RightLeg 16.166553 -0.000000 -0.000000
RightFoot -7.737761 -19.480391 22.659088
RightToeBase 1.542102 -0.000000 -0.000000
LeftUpLeg -11.095066 -11.229148 16.308240
LeftLeg 24.326282 -0.000000 -0.000000
LeftFoot -19.164956 6.654384 -23.716207
LeftToeBase 5.731765 -0.000000 -0.000000
Spine 22.090759 -4.360590 -8.479345
RightShoulder -1.360070 -19.031018 -19.673582
RightArm 12.529227 9.879211 62.079119
RightForeArm 21.668150 -0.000000 32.040250
RightHand 5.257975 0.000000 -16.500941
RightHandThumb1 -24.326973 -0.000000 -32.862282
LeftShoulder -25.368689 30.796471 13.423814
LeftArm 44.149982 -31.494367 -57.098593
LeftForeArm 25.754598 -0.000000 22.602087
LeftHand -24.346960 0.000000 3.970627
LeftHandThumb1 -26.253704 0.000000 33.147579
Head -28.293153 6.808342 6.448627
2640
root 2.642001 36.420947 3.280071 2.696625 2.393320 -4.530032
RightUpLeg -6.538416 -3.280707 -15.222862
RightLeg 17.813977 -0.000000 -0.000000
RightFoot -9.429716 -18.954849 22.617677
RightToeBase 1.551268 -0.000000 -0.000000
LeftUpLeg -10.409447 -10.974603 16.256575
LeftLeg 23.712582 -0.000000 -0.000000
LeftFoot -18.801285 6.779238 -23.715095
LeftToeBase 5.674448 -0.000000 -0.000000
Spine 22.138718 -4.390408 -8.401698
RightShoulder -1.397200 -18.956868 -19.755740
RightArm 12.509885 10.298481 61.616765
RightForeArm 21.607713 -0.000000 31.769991
RightHand 5.196310 0.000000 -16.415517
RightHandThumb1 -24.326973 -0.000000 -32.862282
LeftShoulder -25.406375 30.888287 13.591384
LeftArm 44.149859 -31.884489 -57.042942
LeftForeArm 25.663759 -0.000000 22.600497
LeftHand -24.324782 -0.000000 4.051546
LeftHandThumb1 -26.253704 0.000000 33.147579
Head -28.146786 7.078905 6.551024
2641
root 2.678199 36.489706 3.292221 2.430674 2.071507 -4.719104
RightUpLeg -6.824327 -3.492071 -14.465117
RightLeg 19.401826 -0.000000 -0.000000
RightFoot -10.972784 -18.114516 22.581698
RightToeBase 1.678029 -0.000000 -0.000000
LeftUpLeg -9.718023 -10.786399 16.282828
LeftLeg 23.105305 -0.000000 -0.000000
LeftFoot -18.469566 6.969128 -23.738921
LeftToeBase 5.593391 -0.000000 -0.000000
Spine 22.188268 -4.427305 -8.247525
RightShoulder -1.495902 -18.993653 -19.818714
RightArm 12.688363 10.809738 61.178436
RightForeArm 21.370254 -0.000000 31.475857
RightHand 5.017859 -0.000000 -16.123987
RightHandThumb1 -24.326973 -0.000000 -32.862282
LeftShoulder -25.468968 30.974312 13.720193
LeftArm 44.119237 -32.236338 -56.972380
LeftForeArm 25.666619 0.000000 22.597400
LeftHand -24.267121 -0.000000 4.152347
LeftHandThumb1 -26.253704 0.000000 33.147579
Head -28.004319 7.348066 6.663028
2642
root 2.705348 36.556595 3.305916 2.160739 1.687136 -4.941888
RightUpLeg -7.101650 -3.608465 -13.627301
RightLeg 20.949037 -0.000000 -0.000000
RightFoot -12.343099 -17.203457 22.544999
RightToeBase 1.503426 -0.000000 -0.000000
LeftUpLeg -8.998845 -10.535706 16.359375
LeftLeg 22.502081 -0.000000 -0.000000
LeftFoot -18.151044 7.103445 -23.817660
LeftToeBase 5.573079 -0.000000 -0.000000
Spine 22.219575 -4.449474 -8.062412
RightShoulder -1.524157 -19.012942 -19.894215
RightArm 12.867742 11.313728 60.711609
RightForeArm 21.193275 0.000000 31.198574
RightHand 4.909204 0.000000 -15.965610
RightHandThumb1 -24.326973 -0.000000 -32.862282
LeftShoulder -25.537324 31.066495 13.860765
LeftArm 44.041965 -32.595074 -56.920414
LeftForeArm 25.552022 -0.000000 22.608653
LeftHand -24.346559 -0.000000 4.011658
LeftHandThumb1 -26.253704 0.000000 33.147579
Head -27.832824 7.706217 6.717574
2643
root 2.729024 36.620494 3.319242 1.915409 1.256396 -5.156810
RightUpLeg -7.406753 -3.712434 -12.768584
RightLeg 22.504453 -0.000000 -0.000000
RightFoot -13.472803 -16.104785 22.501127
RightToeBase 1.090935 -0.000000 -0.000000
LeftUpLeg -8.295783 -10.252672 16.434820
LeftLeg 21.921932 -0.000000 -0.000000
LeftFoot -17.841194 7.262776 -23.881613
LeftToeBase 5.514201 -0.000000 -0.000000
Spine 22.209960 -4.447215 -7.872045
RightShoulder -1.560484 -18.985326 -19.966892
RightArm 12.995127 11.778378 60.202440
RightForeArm 21.021495 0.000000 30.999254
RightHand 4.737642 -0.000000 -15.757876
RightHandThumb1 -24.326973 -0.000000 -32.862282
LeftShoulder -25.617271 31.125927 13.970886
LeftArm 43.924144 -32.953839 -56.865501
LeftForeArm 25.634148 -0.000000 22.621592
LeftHand -24.335886 -0.000000 3.953018
LeftHandThumb1 -26.253704 0.000000 33.147579
Head -27.644522 8.036326 6.806240
2644
root 2.749886 36.681286 3.330242 1.691348 0.788644 -5.388694
RightUpLeg -7.720723 -3.815491 -11.864108
RightLeg 24.010332 -0.000000 -0.000000
RightFoot -14.485315 -14.835225 22.662634
RightToeBase 1.040117 -0.000000 -0.000000
LeftUpLeg -7.605610 -9.977947 16.532048
LeftLeg 21.352959 -0.000000 -0.000000
LeftFoot -17.568771 7.475921 -23.958282
LeftToeBase 5.402923 -0.000000 -0.000000
Spine 22.178325 -4.446497 -7.632368
RightShoulder -1.607883 -18.927180 -20.070657
RightArm 13.155256 12.203974 59.689608
RightForeArm 20.948885 -0.000000 30.806721
RightHand 4.719855 -0.000000 -15.650987
RightHandThumb1 -24.326973 -0.000000 -32.862282
LeftShoulder -25.737387 31.140160 14.020236
LeftArm 43.767916 -33.282433 -56.754371
LeftForeArm 25.722926 -0.000000 22.650143
LeftHand -24.346504 0.000000 3.838829
LeftHandThumb1 -26.253704 0.000000 33.147579
Head -27.467438 8.400283 6.819442
2645
root 2.764914 36.736552 3.333960 1.530870 0.308695 -5.595992
RightUpLeg -8.089381 -3.909390 -10.943845
RightLeg 25.480017 -0.000000 -0.000000
RightFoot -15.366697 -13.511748 22.763123
RightToeBase 0.853091 -0.000000 -0.000000
LeftUpLeg -7.025011 -9.609032 16.630568
LeftLeg 20.871413 -0.000000 -0.000000
LeftFoot -17.297912 7.621924 -24.024401
LeftToeBase 5.366245 -0.000000 -0.000000
Spine 22.066814 -4.455394 -7.425649
RightShoulder -1.614481 -18.769959 -20.185058
RightArm 13.217381 12.658656 59.186640
RightForeArm 20.582293 -0.000000 30.642516
RightHand 4.511448 -0.000000 -15.501328
RightHandThumb1 -24.326973 -0.000000 -32.862282
LeftShoulder -25.877567 31.278671 14.070120
LeftArm 43.739230 -33.690311 -56.815473
LeftForeArm 25.862658 0.000000 22.657304
LeftHand -24.400885 -0.000000 3.560337
LeftHandThumb1 -26.253704 0.000000 33.147579
Head -27.248962 8.756883 6.897809
2646
root 2.775939 36.788018 3.339122 1.376254 -0.135727 -5.752405
RightUpLeg -8.415152 -4.114771 -10.047876
RightLeg 26.878922 -0.000000 -0.000000
RightFoot -16.048166 -12.100633 22.705103
RightToeBase 0.860884 -0.000000 -0.000000
LeftUpLeg -6.463632 -9.338588 16.687710
LeftLeg 20.395309 -0.000000 -0.000000
LeftFoot -17.024563 7.831033 -24.094402
LeftToeBase 5.258488 -0.000000 -0.000000
Spine 21.956732 -4.457296 -7.262828
RightShoulder -1.685257 -18.606309 -20.272187
RightArm 13.287803 13.050939 58.671827
RightForeArm 20.310529 -0.000000 30.500782
RightHand 4.443464 0.000000 -15.348489
RightHandThumb1 -24.326973 -0.000000 -32.862282
LeftShoulder -25.982834 31.294782 14.143671
LeftArm 43.611734 -34.052785 -56.750457
LeftForeArm 25.995266 -0.000000 22.654279
LeftHand -24.361522 -0.000000 3.334531
LeftHandThumb1 -26.253704 0.000000 33.147579
Head -27.061978 9.114162 6.983811
